#N canvas 602 21 817 768 12;
#X obj 82 545 vsl 30 128 0 127 0 0 empty empty empty 0 -9 0 10 -262144
-1 -1 12700 1;
#X obj 105 291 f;
#X obj 123 251 random 127;
#X obj 703 22 loadbang;
#X obj 700 49 s init;
#X obj 45 303 0;
#X obj 47 350 <;
#X obj 44 262 t b b;
#X obj 45 495 + 1;
#X obj 46 468 f;
#X obj 45 425 b;
#X obj 46 380 moses 1;
#X obj 125 469 f;
#X obj 126 426 b;
#X obj 126 351 >;
#X obj 125 381 moses 1;
#X obj 44 221 metro 200;
#X obj 43 185 tgl 15 0 empty empty empty 17 7 0 10 -262144 -1 -1 1
1;
#X obj 122 186 tgl 15 0 empty empty empty 17 7 0 10 -262144 -1 -1 1
1;
#X obj 43 107 hsl 128 15 500 10 0 0 empty empty empty -2 -8 0 10 -262144
-1 -1 0 1;
#X text 49 121 Vitesse transitions;
#X obj 44 44 r init;
#X obj 124 496 - 2;
#X obj 169 540 r init;
#X obj 169 564 random 127;
#X obj 84 702 outlet;
#X obj 515 49 loadbang;
#X obj 514 102 s init2;
#X obj 475 77 1;
#X obj 121 153 r init2;
#X obj 43 151 r init2;
#X obj 44 77 500;
#X obj 404 249 inlet;
#X text 230 20 PROGRESSIVE RANDOM SLIDER;
#X obj 228 326 t b f;
#X obj 205 84 inlet;
#X text 369 224 Inlet 2 : valeur max;
#X text 172 62 Inlet 1 : vitesse;
#X obj 123 215 metro 10000;
#X connect 0 0 5 1;
#X connect 0 0 9 1;
#X connect 0 0 12 1;
#X connect 0 0 25 0;
#X connect 1 0 6 1;
#X connect 1 0 14 1;
#X connect 2 0 1 1;
#X connect 3 0 4 0;
#X connect 5 0 6 0;
#X connect 5 0 6 1;
#X connect 5 0 14 0;
#X connect 6 0 11 0;
#X connect 7 0 5 0;
#X connect 7 1 1 0;
#X connect 8 0 0 0;
#X connect 9 0 8 0;
#X connect 10 0 9 0;
#X connect 11 1 10 0;
#X connect 12 0 22 0;
#X connect 13 0 12 0;
#X connect 14 0 15 0;
#X connect 15 1 13 0;
#X connect 16 0 7 0;
#X connect 17 0 16 0;
#X connect 18 0 38 0;
#X connect 19 0 16 1;
#X connect 21 0 31 0;
#X connect 22 0 0 0;
#X connect 23 0 24 0;
#X connect 24 0 0 0;
#X connect 26 0 28 0;
#X connect 28 0 27 0;
#X connect 29 0 18 0;
#X connect 30 0 17 0;
#X connect 31 0 19 0;
#X connect 32 0 2 1;
#X connect 32 0 34 0;
#X connect 34 0 24 0;
#X connect 34 1 24 1;
#X connect 35 0 19 0;
#X connect 38 0 2 0;
